<?xml version="1.0" encoding="utf-8"?>
<!DOCTYPE svg PUBLIC "-//W3C//DTD SVG 1.1//EN" "http://www.w3.org/Graphics/SVG/1.1/DTD/svg11.dtd">
<svg style="width:308px;height:308px;" version="1.1" id="图形" xmlns="http://www.w3.org/2000/svg" xmlns:xlink="http://www.w3.org/1999/xlink" x="0px" y="0px" width="1024px" height="1024px" viewBox="0 0 1024 1024" enable-background="new 0 0 1024 1024" xml:space="preserve">
  <path class="svgpath" data-index="path_0" fill="#ffffff" d="M817.4592 508.3776C800.496009 465.2928 772.041609 428.7744 751.305609 405.129609 758.9952 391.9104 763.344009 378.0864 763.344009 363.772809 763.344009 333.878409 745.4592 306.000009 714.8736 282.038409 699.292809 127.209609 572.169609 6.422409 417.628809 6.422409 263.030409 6.422409 135.936 127.1808 120.355209 282.038409 89.7408 306.000009 71.8848 333.878409 71.8848 363.772809 71.8848 378.0864 76.2624 391.9104 83.9232 405.129609 63.1872 428.745609 34.761609 465.2928 17.769591 508.3776-9.705609 578.102409-14.8032 639.792009 0.1152 680.112009 13.536 716.4864 37.065609 713.232009 56.419209 679.6224 61.4016 670.9824 68.918409 659.0016 77.270409 645.955209 91.584 689.5872 115.516809 729.504 147.024009 763.344009 127.6992 769.1328 110.966409 775.9872 101.462409 783.8784 65.6064 813.9456 64.022409 848.8512 94.435209 875.5776 133.7472 910.1952 292.9536 927.1296 385.4592 876.240009 396.086409 877.1328 406.742409 877.7088 417.628809 877.7088 429.2352 877.7088 440.6976 877.1328 452.016009 876.1536 544.464009 927.158409 703.9296 910.1952 743.2704 875.5776 773.654409 848.8512 772.041609 813.9456 736.214409 783.8784 726.3936 775.6992 708.912009 768.700809 688.7232 762.7392 720 729.014409 743.702409 689.3568 757.929609 645.955209 766.281609 659.0016 773.7984 670.9824 778.780809 679.6224 798.134409 713.2032 821.635209 716.457609 835.0848 680.112009 850.0032 639.792009 844.905609 578.102409 817.430409 508.3776L817.4592 508.3776" />

</svg>
